<svg class="icon-linkedin" xmlns="http://www.w3.org/2000/svg" width="24" height="24" viewBox="0 0 24 24">
  <path d="M19 0h-14c-2.761 0-5 2.239-5 5v14c0 2.762 2.239 5 5 5h14c2.762 0 5-2.238 5-5v-14c0-2.761-2.238-5-5-5zm-11 19h-3v-10h3v10zm-1.5-11.268c-.966 0-1.75-.784-1.75-1.75s.784-1.75 1.75-1.75 1.75.784 1.75 1.75-.784 1.75-1.75 1.75zm13.5 11.268h-3v-5.604c0-1.338-.026-3.063-1.868-3.063-1.869 0-2.156 1.46-2.156 2.968v5.699h-3v-10h2.882v1.367h.041c.401-.758 1.379-1.558 2.838-1.558 3.034 0 3.595 1.997 3.595 4.593v5.598z"/>
</svg>